<svg xmlns="http://www.w3.org/2000/svg" viewBox="0 0 278.34 71.43"><defs><style>.cls-1{fill:#1d1d1b;}</style></defs><g id="Layer_2" data-name="Layer 2"><g id="Layer_1-2" data-name="Layer 1"><path class="cls-1" d="M265.44,48.88h-3.28V45L278.34,0H266.62l-12.7,35.3L250,24.47,258.81,0H247.09l-2.93,8.18L241.23,0H229.51l8.79,24.47L234.39,35.3,221.7,0H210l4.18,11.65a29.82,29.82,0,0,0-2.36-3.39Q205.16,0,195.72,0T179.57,8.26A29.28,29.28,0,0,0,173.29,23a29.2,29.2,0,0,0-6.35-14.74Q160.29,0,150.86,0H131.32V54.17L111.86,0h-8.47L87.83,43.33h-3.9V0H73.51V21.66H57.88L53.32,34.5H73.51V56.17H94.93l12.7-35.31,8.07,22.47H100.79l4.56,12.84h45.51q9.44,0,16.08-8.19a29.54,29.54,0,0,0,6.35-14.81A29.63,29.63,0,0,0,179.57,48q6.7,8.19,16.15,8.19T211.8,48a30.58,30.58,0,0,0,6.71-19.9,36,36,0,0,0-.41-5.47l12.06,33.56h8.46l5.54-15.41,5.53,15.41h8.47l2-5.58v5.57h2V51.34h3.28v4.82h2V44.66h-2Zm-105.86-10a10.84,10.84,0,0,1-8.72,4.42h-9.12V12.84h9.12a10.93,10.93,0,0,1,8.72,4.49,16.54,16.54,0,0,1,3.65,10.75A16.63,16.63,0,0,1,159.58,38.91Zm44.86,0a10.82,10.82,0,0,1-17.45,0,16.62,16.62,0,0,1-3.64-10.83A16.53,16.53,0,0,1,187,17.33a10.72,10.72,0,0,1,17.45,0,16.54,16.54,0,0,1,3.65,10.75A16.63,16.63,0,0,1,204.44,38.91Z"/><path class="cls-1" d="M270.64,44.66h-2.25v11.5h2.25a6.37,6.37,0,0,0,1.71-.2,3.89,3.89,0,0,0,1.27-.67,4.94,4.94,0,0,0,1.56-2,7.05,7.05,0,0,0,.54-2.84,6.15,6.15,0,0,0-1.35-4.21A4.69,4.69,0,0,0,270.64,44.66Zm2.28,8.16a2.61,2.61,0,0,1-2.08.87h-.45V47.11h.45a2.59,2.59,0,0,1,2.08.88,4.26,4.26,0,0,1,0,4.83Z"/><path class="cls-1" d="M41.6,0H14C10.13,0,6.84,1.69,4.1,5.05A18.78,18.78,0,0,0,0,17.25a18.78,18.78,0,0,0,4.1,12.2c2.74,3.37,6,5.05,9.9,5.05H28.32a3.15,3.15,0,0,1,2.54,1.29,5.22,5.22,0,0,1,0,6.25,3.15,3.15,0,0,1-2.54,1.29H0V56.17H28.32c3.87,0,7.16-1.69,9.9-5.06a17.77,17.77,0,0,0,3.38-6.65V56.17H52V0H41.6Zm0,33.37a17.77,17.77,0,0,0-3.38-6.65c-2.74-3.37-6-5.06-9.9-5.06H14a3.14,3.14,0,0,1-2.54-1.28,4.77,4.77,0,0,1-1-3.13,4.79,4.79,0,0,1,1-3.13A3.17,3.17,0,0,1,14,12.84H41.6Z"/><path class="cls-1" d="M137.12,71V58.93h3.2a7.9,7.9,0,0,1,5.28,1.62,5.46,5.46,0,0,1,1.91,4.4,5.75,5.75,0,0,1-.76,3,5.84,5.84,0,0,1-2.21,2.14,6.28,6.28,0,0,1-1.81.69,10.94,10.94,0,0,1-2.41.22ZM140,68.39h.63a4.38,4.38,0,0,0,2.95-.91,3.55,3.55,0,0,0,0-5.06,4.38,4.38,0,0,0-2.95-.92H140Z"/><path class="cls-1" d="M149.52,71V58.93h7.42v2.49h-4.63v2.17h4v2.47h-4v2.38H157V71Z"/><path class="cls-1" d="M158.65,67.57a10.51,10.51,0,0,0,1.89,1,4.55,4.55,0,0,0,1.51.27,2,2,0,0,0,1.2-.33,1,1,0,0,0,.45-.84c0-.49-.53-1-1.61-1.66l-.4-.23-.81-.46a5.17,5.17,0,0,1-1.76-1.52,3.36,3.36,0,0,1-.57-1.92,3,3,0,0,1,1.09-2.38,4.23,4.23,0,0,1,2.83-.93,7.09,7.09,0,0,1,1.39.15,12.88,12.88,0,0,1,1.66.46V62a9.28,9.28,0,0,0-1.65-.85,3.81,3.81,0,0,0-1.33-.3,1.58,1.58,0,0,0-.95.26.83.83,0,0,0-.35.71,1,1,0,0,0,.2.59,2,2,0,0,0,.63.5l1.41.78a7.57,7.57,0,0,1,2.38,1.81,3.21,3.21,0,0,1,.61,2,3.64,3.64,0,0,1-1.2,2.84,4.54,4.54,0,0,1-3.19,1.09,8,8,0,0,1-1.46-.15,15,15,0,0,1-1.73-.43Z"/><path class="cls-1" d="M168.59,71V58.93h2.88V71Z"/><path class="cls-1" d="M184.5,64.29v5.86a13.4,13.4,0,0,1-2.36.91,8.93,8.93,0,0,1-2.23.31,6.49,6.49,0,0,1-4.54-11A6.35,6.35,0,0,1,180,58.53a6.78,6.78,0,0,1,2,.29,7,7,0,0,1,1.85.88l-.31,3a6,6,0,0,0-1.67-1.24,4,4,0,0,0-1.74-.39,3.6,3.6,0,0,0-2.68,1.08,3.72,3.72,0,0,0-1.07,2.71,4,4,0,0,0,1,2.8,3.48,3.48,0,0,0,2.64,1.08,3.91,3.91,0,0,0,.76-.07,5.12,5.12,0,0,0,.8-.19V66.74h-2.29V64.29Z"/><path class="cls-1" d="M186.88,71V58.54h.28l7.49,7V58.93h2.65v12.5h-.25l-7.52-7V71Z"/><path class="cls-1" d="M204.43,67.57a10.51,10.51,0,0,0,1.89,1,4.59,4.59,0,0,0,1.51.27,2,2,0,0,0,1.2-.33,1,1,0,0,0,.46-.84c0-.49-.54-1-1.61-1.66l-.4-.23-.82-.46a5.17,5.17,0,0,1-1.76-1.52,3.36,3.36,0,0,1-.57-1.92,3,3,0,0,1,1.1-2.38,4.21,4.21,0,0,1,2.83-.93,7,7,0,0,1,1.38.15,13,13,0,0,1,1.67.46V62a9.7,9.7,0,0,0-1.66-.85,3.81,3.81,0,0,0-1.33-.3,1.58,1.58,0,0,0-.95.26.85.85,0,0,0-.35.71,1,1,0,0,0,.21.59,1.91,1.91,0,0,0,.62.5l1.41.78a7.57,7.57,0,0,1,2.38,1.81,3.21,3.21,0,0,1,.61,2,3.64,3.64,0,0,1-1.2,2.84,4.53,4.53,0,0,1-3.18,1.09,7.78,7.78,0,0,1-1.46-.15,14.63,14.63,0,0,1-1.74-.43Z"/><path class="cls-1" d="M216.79,71V61.45H213V58.93h10.51v2.52h-3.81V71Z"/><path class="cls-1" d="M227.58,58.93v6.62a4,4,0,0,0,.59,2.39,2.05,2.05,0,0,0,1.77.79,2.1,2.1,0,0,0,1.75-.74,3.32,3.32,0,0,0,.6-2.15V58.93h2.57v6.91a5.81,5.81,0,0,1-1.34,4.07,5.48,5.48,0,0,1-7.44,0,5.76,5.76,0,0,1-1.34-4.06V58.93Z"/><path class="cls-1" d="M237.5,71V58.93h3.2A7.94,7.94,0,0,1,246,60.55a5.46,5.46,0,0,1,1.91,4.4,5.63,5.63,0,0,1-3,5.12,6.11,6.11,0,0,1-1.8.69,11,11,0,0,1-2.41.22Zm2.84-2.59H241a4.38,4.38,0,0,0,2.95-.91,3.55,3.55,0,0,0,0-5.06A4.38,4.38,0,0,0,241,61.5h-.63Z"/><path class="cls-1" d="M249.93,71V58.93h2.87V71Z"/><path class="cls-1" d="M254.86,65a6.9,6.9,0,0,1,.46-2.5,6.34,6.34,0,0,1,1.36-2.09A6,6,0,0,1,261,58.54a5.92,5.92,0,0,1,2.35.48,6.21,6.21,0,0,1,3.34,3.41,7.27,7.27,0,0,1,.13,4.65,5.83,5.83,0,0,1-.94,1.82A6.09,6.09,0,0,1,261,71.37a5.9,5.9,0,0,1-2.34-.48,6,6,0,0,1-2-1.36,6.29,6.29,0,0,1-1.36-2.08A6.82,6.82,0,0,1,254.86,65Zm3,0a3.87,3.87,0,0,0,.92,2.63A2.86,2.86,0,0,0,261,68.64a2.9,2.9,0,0,0,2.27-1,4.28,4.28,0,0,0,0-5.28,2.95,2.95,0,0,0-4.53,0A3.91,3.91,0,0,0,257.82,65Z"/></g></g></svg>